<svg xmlns="http://www.w3.org/2000/svg" version="1.1" xmlns:xlink="http://www.w3.org/1999/xlink" width="1500" height="1500" viewBox="0 0 1500 1500"><rect width="1500" height="1500" x="0" y="0" id="background" stroke="transparent" fill="#000000"></rect><svg xml:space="preserve" width="1000" height="1000" data-version="2" data-id="lg_5QVuTDW6aQhhz9kkCb" viewBox="0 0 555 503" x="250" y="250"><rect width="100%" height="100%" fill="transparent"></rect><path d="M5.3 372.225h16.02q9.5 0 13.77 3.52t4.27 10.73q0 3.35-.92 5.81-.93 2.46-2.07 4.14-1.32 1.93-2.91 3.34 2.12.79 3.96 2.02 1.85 1.24 3.26 3 1.41 1.76 2.24 4.18.84 2.42.84 5.67 0 3.61-.97 6.82-.97 3.21-3.25 5.59-2.29 2.38-6.08 3.78-3.78 1.41-9.41 1.41H5.3Zm7.4 26.04h14.69q1.23-.96 2.2-2.55.88-1.32 1.59-3.3.7-1.98.7-4.79 0-5.2-2.68-7-2.69-1.8-7.53-1.8H12.7Zm0 27.37h11.96q5.81 0 8.72-2.99 2.9-2.99 2.9-8.01 0-2.2-.57-4.05-.57-1.84-1.98-3.21-1.41-1.36-3.79-2.15-2.37-.8-5.89-.8H12.7Z"></path><rect width="38.46" height="60.01" x="-19.23" y="-30" fill="none" rx="0" ry="0" transform="translate(25.03 402.73)"></rect><path d="m54.06 366.325 7.04-.79v66.7h-7.04Z"></path><rect width="7.04" height="66.7" x="-3.52" y="-33.35" fill="none" rx="0" ry="0" transform="translate(58.08 399.38)"></rect><path d="M78.78 410.325q0 8.54 3.83 12.72 3.83 4.18 10.34 4.18 6.43 0 10.03-4.14 3.61-4.14 3.61-12.41 0-8.8-3.83-13.11-3.82-4.31-10.42-4.31t-10.08 4.27q-3.48 4.26-3.48 12.8m-7.48-.09q0-6.69 2.12-11.13 2.11-4.44 5.36-7.13 3.26-2.68 7-3.78 3.74-1.1 7.08-1.1 3.17 0 6.91 1.01t6.91 3.61q3.17 2.59 5.28 6.95 2.11 4.36 2.11 11.04 0 6.96-2.15 11.53-2.16 4.58-5.42 7.26-3.25 2.69-7.04 3.79-3.78 1.1-7.04 1.1-3.34 0-7.04-1.06-3.69-1.06-6.82-3.65-3.12-2.6-5.19-7.09-2.07-4.48-2.07-11.35"></path><rect width="42.77" height="46.29" x="-21.39" y="-23.14" fill="none" rx="0" ry="0" transform="translate(93.19 410.74)"></rect><path d="M158.95 436.465q0 3.25-.7 6.33-.71 3.08-2.69 5.5t-5.54 3.87q-3.56 1.46-9.37 1.46-3.7-.09-6.43-.44-2.72-.36-5.19-1.02-2.46-.66-4.49-1.54l1.85-6.16q3.43 1.5 7 2.29 3.56.79 6.38.79 3.08 0 5.37-.61 2.28-.62 3.82-2.07 1.54-1.45 2.29-3.83.75-2.37.75-5.89v-6.43q-1.85 1.23-3.83 2.25-1.98 1.01-4.22 1.71-2.25.71-4.36.71-8.18 0-12.93-5.77-4.76-5.76-4.76-17.2 0-6.6 2.07-11.05 2.07-4.44 5.24-7.17 3.17-2.73 6.95-3.91 3.78-1.19 7.22-1.19 4.48 0 8.22.75 3.74.74 7.35 1.18Zm-18.57-9.24q1.94 0 3.96-.71 2.03-.7 3.92-1.67 1.89-.97 3.74-2.29v-28.07q-1.06-.26-2.46-.62-1.24-.17-2.82-.39-1.58-.22-3.34-.22-3.7 0-6.34 1.32-2.64 1.32-4.36 3.61-1.71 2.28-2.5 5.36-.8 3.08-.8 6.52 0 3.08.66 6.16t2.07 5.54q1.41 2.46 3.43 3.96 2.03 1.5 4.84 1.5"></path><rect width="37.05" height="66.53" x="-18.52" y="-33.27" fill="none" rx="0" ry="0" transform="translate(140.93 420.86)"></rect><path d="M204.36 431.185q-2.02.61-4.18 1.05-2.16.44-4.75.79-2.6.36-5.41.36-4.4 0-8.19-1.24-3.78-1.23-6.6-3.96-2.81-2.72-4.44-7.08-1.63-4.36-1.63-10.69 0-5.72 1.58-10.08 1.59-4.35 4.36-7.3 2.77-2.95 6.51-4.45 3.74-1.49 8.14-1.49 4.31 0 7.48 1.67 3.17 1.67 5.24 4.53 2.07 2.86 3.08 6.69 1.01 3.83 1.01 8.05l-1.32 3.87h-28.42q0 2.73.7 5.46t2.42 4.93q1.72 2.2 4.49 3.56 2.77 1.37 6.91 1.37 2.64 0 4.84-.31 2.2-.31 3.82-.71 1.63-.39 3.04-.92Zm-5.1-24.91q0-.61-.27-2.73-.26-2.11-1.23-4.4-.97-2.28-2.99-4.09-2.03-1.8-5.37-1.8-3.7 0-6.07 1.54-2.38 1.54-3.79 3.65-1.4 2.11-1.93 4.31-.53 2.2-.53 3.52Z"></path><rect width="37.4" height="46.29" x="-18.7" y="-23.14" fill="none" rx="0" ry="0" transform="translate(188.36 410.74)"></rect><path d="M216.24 395.105q0-2.03-.44-6.34l6.51-.88.71 6.42h.08q1.59-2.02 3.08-3.52 1.5-1.49 3.13-2.59 1.63-1.1 3.12-1.1 2.03-.09 5.63.44l-1.58 6.77q-2.9-.52-4.05-.44-1.49 0-3.17 1.41-1.67 1.41-2.9 2.99-1.58 1.94-3.08 4.4v29.57h-7.04Z"></path><rect width="22.26" height="45.19" x="-11.13" y="-22.59" fill="none" rx="0" ry="0" transform="translate(227.43 410.14)"></rect><path d="M244.66 438.045h38.81v5.28h-38.81Z"></path><rect width="38.81" height="5.28" x="-19.41" y="-2.64" fill="none" rx="0" ry="0" transform="translate(264.56 441.19)"></rect><path d="M318.94 395.185q-3.7-1.14-6.56-1.54-2.86-.39-5.24-.39-3.08 0-5.14 1.49-2.07 1.5-2.07 3.88.09 2.11 1.85 3.6 1.76 1.5 4.09 2.69t5.19 2.59q2.86 1.41 5.37 3.17 2.51 1.76 4.09 4.23 1.58 2.46 1.67 5.89-.09 3.7-1.63 6.12-1.54 2.42-3.96 3.87-2.42 1.45-5.23 2.02-2.82.58-5.28.58-3.17 0-6.56-.36-3.39-.35-7.26-1.49l1.32-6.34q3.96 1.06 7.22 1.54 3.25.49 5.37.49 1.58 0 3.12-.36 1.54-.35 2.77-1.01t1.98-1.71q.75-1.06.75-2.38-.09-2.46-1.67-4.18-1.59-1.72-4.09-3.08-2.51-1.36-5.37-2.73-2.86-1.36-5.37-3.17-2.51-1.8-4.18-4.31t-1.67-6.2q0-2.64 1.36-4.71 1.37-2.07 3.52-3.43 2.16-1.37 4.75-2.11 2.6-.75 5.06-.75 2.56 0 5.72.39 3.17.4 7.31 1.46Z"></path><rect width="29.92" height="46.29" x="-14.96" y="-23.14" fill="none" rx="0" ry="0" transform="translate(307.73 410.74)"></rect><path d="M325.98 387.975h7.48l8.27 19.97q1.23 2.91 2.24 5.81 1.01 2.91 1.81 5.19.96 2.73 1.67 5.28h.09q.79-2.55 1.76-5.28.79-2.28 1.84-5.19 1.06-2.9 2.2-5.81l7.66-19.97h7.39l-20.94 52.8q-1.23 3.25-3.21 5.63t-3.83 3.96q-2.2 1.85-4.58 3.17l-3.43-6.07q1.85-.88 3.43-2.2 1.41-1.15 2.82-2.86 1.41-1.72 2.29-4.1l2.72-7.21Z"></path><rect width="42.41" height="65.56" x="-21.2" y="-32.78" fill="none" rx="0" ry="0" transform="translate(347.69 421.25)"></rect><path d="M399.37 395.185q-3.7-1.14-6.56-1.54-2.86-.39-5.23-.39-3.08 0-5.15 1.49-2.07 1.5-2.07 3.88.09 2.11 1.85 3.6 1.76 1.5 4.09 2.69t5.19 2.59q2.86 1.41 5.37 3.17 2.51 1.76 4.09 4.23 1.59 2.46 1.67 5.89-.08 3.7-1.62 6.12t-3.96 3.87q-2.42 1.45-5.24 2.02-2.82.58-5.28.58-3.17 0-6.56-.36-3.38-.35-7.26-1.49l1.32-6.34q3.96 1.06 7.22 1.54 3.26.49 5.37.49 1.58 0 3.12-.36 1.54-.35 2.77-1.01 1.24-.66 1.98-1.71.75-1.06.75-2.38-.09-2.46-1.67-4.18-1.58-1.72-4.09-3.08t-5.37-2.73q-2.86-1.36-5.37-3.17-2.51-1.8-4.18-4.31t-1.67-6.2q0-2.64 1.36-4.71 1.37-2.07 3.52-3.43 2.16-1.37 4.76-2.11 2.59-.75 5.06-.75 2.55 0 5.72.39 3.16.4 7.3 1.46Z"></path><rect width="29.92" height="46.29" x="-14.96" y="-23.14" fill="none" rx="0" ry="0" transform="translate(388.16 410.74)"></rect><path d="M422.42 374.775v13.2h12.76v5.72h-12.76v23.49q0 2.91.14 4.84.13 1.94.57 3.08.44 1.15 1.23 1.63.79.49 2.02.49 3.35-.09 7.75-2.47l2.11 5.37q-2.9 1.94-5.41 2.6-2.51.66-4.97.66-5.81 0-8.14-3.3-2.34-3.3-2.34-10.96v-25.43h-8.09v-5.72h8.09v-12.32Z"></path><rect width="28.95" height="58.61" x="-14.47" y="-29.3" fill="none" rx="0" ry="0" transform="translate(422.26 404.58)"></rect><path d="M476.54 431.185q-2.02.61-4.18 1.05-2.15.44-4.75.79-2.59.36-5.41.36-4.4 0-8.18-1.24-3.79-1.23-6.6-3.96-2.82-2.72-4.45-7.08-1.63-4.36-1.63-10.69 0-5.72 1.59-10.08 1.58-4.35 4.35-7.3 2.78-2.95 6.52-4.45 3.74-1.49 8.14-1.49 4.31 0 7.48 1.67 3.16 1.67 5.23 4.53 2.07 2.86 3.08 6.69 1.01 3.83 1.01 8.05l-1.32 3.87H449q0 2.73.7 5.46.71 2.73 2.42 4.93 1.72 2.2 4.49 3.56 2.77 1.37 6.91 1.37 2.64 0 4.84-.31 2.2-.31 3.83-.71 1.63-.39 3.03-.92Zm-5.1-24.91q0-.61-.26-2.73-.27-2.11-1.24-4.4-.96-2.28-2.99-4.09-2.02-1.8-5.37-1.8-3.69 0-6.07 1.54-2.37 1.54-3.78 3.65-1.41 2.11-1.94 4.31-.53 2.2-.53 3.52Z"></path><rect width="37.4" height="46.29" x="-18.7" y="-23.14" fill="none" rx="0" ry="0" transform="translate(460.54 410.74)"></rect><path d="M488.42 395.985q0-3-.52-7.22l6.6-.88.96 5.54q2.38-1.76 4.67-3.08t4.93-2.28q2.64-.97 5.36-.97 4.4 0 6.96 1.54 2.55 1.54 3.78 5.23 3.61-2.55 7.52-4.66 3.92-2.11 8.14-2.11 3.26 0 5.55.83 2.29.84 3.69 2.78 1.41 1.93 2.03 5.1.61 3.17.61 7.92v28.51h-7.04v-27.72q0-2.64-.08-4.71-.09-2.06-.62-3.52-.53-1.45-1.72-2.24-1.18-.79-3.38-.79-2.03 0-3.83.57-1.81.57-3.74 1.63-1.94 1.05-5.99 4.31v32.47h-7.04v-27.72q0-2.64-.08-4.71-.09-2.06-.62-3.52-.53-1.45-1.72-2.24-1.18-.79-3.38-.79-2.29 0-4.76.97-2.46.96-4.66 2.28-2.2 1.32-4.58 3.08v32.65h-7.04Z"></path><rect width="60.8" height="45.14" x="-30.4" y="-22.57" fill="none" rx="0" ry="0" transform="translate(518.8 410.17)"></rect><path d="m113.32 493.085-1.5-3.85h-4.86l-1.49 3.85h-1.42l4.74-12.18h1.27l4.72 12.18Zm-1.92-5.1-1.42-3.83-.16-.49q-.11-.34-.23-.7l-.19-.59q-.08.34-.18.67-.09.34-.19.63-.09.28-.15.48l-1.45 3.83Z"></path><rect width="10.73" height="12.18" x="-5.37" y="-6.09" fill="none" rx="0" ry="0" transform="translate(109.92 487.5)"></rect><path d="M126.55 490.595q0 .88-.44 1.47-.43.59-1.24.89-.81.3-1.93.3-.96 0-1.65-.15-.7-.15-1.22-.42v-1.27q.55.27 1.32.5.78.22 1.58.22 1.18 0 1.71-.38t.53-1.04q0-.37-.21-.66-.21-.29-.71-.56-.5-.27-1.38-.59-.87-.33-1.5-.66-.64-.33-.98-.8-.35-.47-.35-1.23 0-1.15.94-1.77.93-.62 2.45-.62.82 0 1.54.16.72.16 1.34.44l-.46 1.1q-.57-.24-1.21-.4-.64-.17-1.3-.17-.96 0-1.47.31-.51.32-.51.87 0 .42.24.7.24.27.76.51t1.38.56q.85.32 1.47.66.63.33.96.81.34.48.34 1.22"></path><rect width="6.48" height="9.43" x="-3.24" y="-4.71" fill="none" rx="0" ry="0" transform="translate(123.81 489.04)"></rect><path d="M133.04 483.825q1.7 0 2.71 1.17 1.02 1.17 1.02 3.52 0 1.55-.47 2.61-.46 1.05-1.3 1.59-.85.54-1.99.54-.72 0-1.27-.19t-.94-.52q-.39-.32-.65-.7h-.1q.03.32.06.78.04.46.04.8v3.73h-1.38v-13.16h1.13l.19 1.34h.06q.27-.41.65-.76.38-.34.93-.55.56-.2 1.31-.2m-.24 1.16q-.95 0-1.52.37-.58.36-.85 1.09-.26.73-.28 1.82v.27q0 1.15.25 1.95.26.79.84 1.21.59.41 1.58.41.84 0 1.41-.45.56-.46.84-1.28.28-.81.28-1.88 0-1.61-.63-2.56t-1.92-.95"></path><rect width="8" height="13.33" x="-4" y="-6.67" fill="none" rx="0" ry="0" transform="translate(133.27 490.99)"></rect><path d="M142.57 483.845q1.63 0 2.42.73.78.73.78 2.33v6.18h-1l-.27-1.34h-.06q-.38.5-.8.83-.41.34-.96.51-.54.17-1.33.17-.83 0-1.47-.29-.65-.29-1.02-.88-.37-.59-.37-1.49 0-1.37 1.08-2.1t3.29-.79l1.57-.07v-.56q0-1.17-.51-1.65-.5-.47-1.42-.47-.72 0-1.37.21-.64.2-1.22.49l-.43-1.05q.62-.32 1.41-.54.8-.22 1.68-.22m1.84 4.76-1.38.06q-1.71.07-2.4.56-.7.49-.7 1.38 0 .78.47 1.16.48.37 1.26.37 1.21 0 1.98-.67.77-.68.77-2.02Z"></path><rect width="7.28" height="9.41" x="-3.64" y="-4.71" fill="none" rx="0" ry="0" transform="translate(142.63 489.05)"></rect><path d="M152.26 493.255q-1.23 0-2.17-.51-.94-.5-1.46-1.54t-.52-2.62q0-1.65.55-2.7.55-1.05 1.52-1.55.97-.51 2.21-.51.68 0 1.32.14.63.13 1.04.34l-.42 1.16q-.41-.17-.96-.3-.54-.14-1.01-.14-.95 0-1.58.41-.62.41-.93 1.2-.32.78-.32 1.94 0 1.1.31 1.88.3.78.9 1.19.6.41 1.51.41.72 0 1.3-.15.58-.15 1.06-.36v1.23q-.46.23-1.02.36-.56.12-1.33.12"></path><rect width="6.64" height="9.43" x="-3.32" y="-4.71" fill="none" rx="0" ry="0" transform="translate(151.93 489.04)"></rect><path d="M160.26 483.825q1.16 0 1.99.51.83.52 1.27 1.44.44.93.44 2.17v.85h-6.28q.02 1.6.79 2.44.78.84 2.18.84.86 0 1.53-.16.66-.15 1.37-.46v1.21q-.68.31-1.36.45t-1.6.14q-1.31 0-2.29-.54-.97-.53-1.51-1.57t-.54-2.54q0-1.47.49-2.54.5-1.08 1.4-1.66.9-.58 2.12-.58m-.02 1.13q-1.1 0-1.76.72-.65.72-.78 2.02h4.82q-.01-.82-.26-1.43-.24-.62-.74-.97-.5-.34-1.28-.34"></path><rect width="7.71" height="9.43" x="-3.85" y="-4.71" fill="none" rx="0" ry="0" transform="translate(160.6 489.04)"></rect><path d="M174.77 485.075h-2.27v8.01h-1.38v-8.01h-1.61v-.67l1.61-.46v-.6q0-1.15.34-1.86.35-.72.99-1.06.65-.34 1.58-.34.52 0 .96.09.43.09.77.21l-.36 1.08q-.28-.09-.64-.17-.35-.08-.71-.08-.79 0-1.17.51-.38.51-.38 1.6v.67h2.27Z"></path><rect width="6.25" height="13" x="-3.13" y="-6.5" fill="none" rx="0" ry="0" transform="translate(173.13 487.08)"></rect><path d="M184.28 488.525q0 1.12-.29 2-.29.88-.84 1.48-.55.61-1.32.93-.78.32-1.76.32-.91 0-1.67-.32-.76-.32-1.31-.93-.55-.6-.86-1.48-.3-.88-.3-2 0-1.5.51-2.55.5-1.05 1.45-1.6.94-.55 2.24-.55 1.25 0 2.18.56.93.55 1.45 1.6.52 1.05.52 2.54m-6.92 0q0 1.09.29 1.9.29.8.9 1.24.6.44 1.56.44.94 0 1.55-.44.61-.44.9-1.24.29-.81.29-1.9 0-1.09-.29-1.88-.29-.79-.89-1.23-.61-.43-1.57-.43-1.42 0-2.08.94-.66.94-.66 2.6"></path><rect width="8.35" height="9.43" x="-4.17" y="-4.71" fill="none" rx="0" ry="0" transform="translate(180.6 489.04)"></rect><path d="M190.8 483.825q.27 0 .57.03.3.03.53.08l-.17 1.28q-.23-.06-.5-.09-.27-.04-.52-.04-.54 0-1.03.22-.48.22-.85.63-.37.41-.57.99-.21.58-.21 1.28v4.88h-1.39v-9.09h1.15l.15 1.67h.06q.28-.5.68-.92.4-.42.92-.67.53-.25 1.18-.25"></path><rect width="5.24" height="9.26" x="-2.62" y="-4.63" fill="none" rx="0" ry="0" transform="translate(189.78 488.95)"></rect><path d="M202.3 483.825q1.7 0 2.72 1.17 1.01 1.17 1.01 3.52 0 1.55-.47 2.61-.46 1.05-1.3 1.59-.85.54-1.99.54-.72 0-1.27-.19t-.94-.52q-.39-.32-.65-.7h-.1q.03.32.07.78.03.46.03.8v3.73h-1.38v-13.16h1.13l.19 1.34h.06q.27-.41.65-.76.38-.34.93-.55.56-.2 1.31-.2m-.24 1.16q-.94 0-1.52.37-.58.36-.84 1.09-.27.73-.29 1.82v.27q0 1.15.26 1.95.25.79.84 1.21.58.41 1.57.41.84 0 1.41-.45.56-.46.84-1.28.28-.81.28-1.88 0-1.61-.63-2.56-.62-.95-1.92-.95"></path><rect width="8" height="13.33" x="-4" y="-6.67" fill="none" rx="0" ry="0" transform="translate(202.53 490.99)"></rect><path d="M212.56 483.825q.28 0 .57.03.3.03.54.08l-.18 1.28q-.22-.06-.5-.09-.27-.04-.51-.04-.55 0-1.03.22-.49.22-.86.63-.36.41-.57.99-.21.58-.21 1.28v4.88h-1.38v-9.09h1.14l.15 1.67h.06q.28-.5.68-.92.4-.42.93-.67.52-.25 1.17-.25"></path><rect width="5.24" height="9.26" x="-2.62" y="-4.63" fill="none" rx="0" ry="0" transform="translate(211.55 488.95)"></rect><path d="M218.88 483.825q1.16 0 1.99.51.83.52 1.27 1.44.44.93.44 2.17v.85h-6.28q.02 1.6.79 2.44.78.84 2.18.84.86 0 1.53-.16.66-.15 1.37-.46v1.21q-.68.31-1.36.45t-1.6.14q-1.31 0-2.29-.54-.97-.53-1.51-1.57t-.54-2.54q0-1.47.49-2.54.5-1.08 1.4-1.66.9-.58 2.12-.58m-.02 1.13q-1.1 0-1.76.72-.65.72-.78 2.02h4.82q-.01-.82-.26-1.43-.24-.62-.74-.97-.5-.34-1.28-.34"></path><rect width="7.71" height="9.43" x="-3.85" y="-4.71" fill="none" rx="0" ry="0" transform="translate(219.22 489.04)"></rect><path d="M230.81 490.595q0 .88-.44 1.47-.43.59-1.24.89-.81.3-1.93.3-.96 0-1.66-.15-.69-.15-1.22-.42v-1.27q.56.27 1.33.5.77.22 1.58.22 1.18 0 1.71-.38t.53-1.04q0-.37-.21-.66-.21-.29-.71-.56-.5-.27-1.38-.59-.87-.33-1.51-.66-.63-.33-.97-.8-.35-.47-.35-1.23 0-1.15.93-1.77.94-.62 2.46-.62.82 0 1.54.16.72.16 1.34.44l-.47 1.1q-.56-.24-1.2-.4-.64-.17-1.3-.17-.96 0-1.47.31-.51.32-.51.87 0 .42.24.7.23.27.76.51.52.24 1.37.56.86.32 1.48.66.62.33.96.81.34.48.34 1.22"></path><rect width="6.49" height="9.43" x="-3.25" y="-4.71" fill="none" rx="0" ry="0" transform="translate(228.06 489.04)"></rect><path d="M236.53 483.825q1.16 0 1.99.51.83.52 1.27 1.44.44.93.44 2.17v.85h-6.29q.03 1.6.8 2.44.77.84 2.18.84.86 0 1.52-.16.67-.15 1.38-.46v1.21q-.69.31-1.36.45-.68.14-1.6.14-1.31 0-2.29-.54-.97-.53-1.51-1.57t-.54-2.54q0-1.47.49-2.54.49-1.08 1.4-1.66.9-.58 2.12-.58m-.02 1.13q-1.1 0-1.76.72-.66.72-.78 2.02h4.81q0-.82-.25-1.43-.24-.62-.74-.97-.5-.34-1.28-.34"></path><rect width="7.71" height="9.43" x="-3.85" y="-4.71" fill="none" rx="0" ry="0" transform="translate(236.88 489.04)"></rect><path d="M246.88 483.825q1.62 0 2.45.79.83.8.83 2.55v5.92h-1.37v-5.83q0-1.14-.51-1.7-.52-.57-1.59-.57-1.51 0-2.13.86-.61.85-.61 2.48v4.76h-1.38v-9.09h1.11l.21 1.31h.07q.29-.48.74-.81.45-.33 1.01-.5.55-.17 1.17-.17"></path><rect width="7.59" height="9.26" x="-3.79" y="-4.63" fill="none" rx="0" ry="0" transform="translate(246.87 488.95)"></rect><path d="M255.93 492.125q.34 0 .7-.06.36-.06.58-.14v1.07q-.24.11-.67.19-.42.07-.83.07-.72 0-1.31-.25-.59-.26-.94-.86-.36-.61-.36-1.68v-5.39h-1.29v-.68l1.3-.54.55-1.97h.83v2.11h2.66v1.08h-2.66v5.35q0 .85.39 1.28.4.42 1.05.42"></path><rect width="5.4" height="11.37" x="-2.7" y="-5.68" fill="none" rx="0" ry="0" transform="translate(255.01 488.07)"></rect><path d="M260.43 483.995v9.09h-1.38v-9.09Zm-.67-3.41q.34 0 .59.22.24.22.24.69 0 .45-.24.68-.25.22-.59.22-.36 0-.59-.22-.24-.23-.24-.68 0-.47.24-.69.23-.22.59-.22"></path><rect width="1.66" height="12.5" x="-.83" y="-6.25" fill="none" rx="0" ry="0" transform="translate(260.26 487.33)"></rect><path d="M267.65 483.825q1.62 0 2.45.79.83.8.83 2.55v5.92h-1.36v-5.83q0-1.14-.52-1.7-.52-.57-1.59-.57-1.51 0-2.12.86-.62.85-.62 2.48v4.76h-1.37v-9.09h1.11l.21 1.31h.07q.29-.48.74-.81.45-.33 1-.5.56-.17 1.17-.17"></path><rect width="7.58" height="9.26" x="-3.79" y="-4.63" fill="none" rx="0" ry="0" transform="translate(267.64 488.95)"></rect><path d="M276.31 497.175q-1.79 0-2.76-.67-.97-.67-.97-1.87 0-.86.54-1.46.54-.61 1.51-.81-.36-.16-.61-.5-.26-.33-.26-.76 0-.5.28-.88.28-.37.85-.72-.71-.29-1.16-.99-.44-.69-.44-1.61 0-.98.41-1.67.4-.7 1.18-1.06.77-.37 1.86-.37.24 0 .49.02l.47.06q.22.04.39.09h3.12v.89l-1.68.21q.25.32.42.78.16.45.16 1.01 0 1.36-.92 2.16t-2.53.8q-.38 0-.78-.06-.41.22-.62.49-.21.28-.21.63 0 .27.16.43.16.16.47.23.31.07.74.07h1.6q1.49 0 2.28.62.79.62.79 1.82 0 1.51-1.23 2.31-1.22.81-3.55.81m.04-1.08q1.13 0 1.88-.23.74-.23 1.11-.66.37-.42.37-1.01 0-.55-.25-.83-.25-.28-.73-.37-.48-.1-1.18-.1h-1.58q-.61 0-1.07.19-.46.19-.7.57-.25.37-.25.93 0 .74.63 1.12.62.39 1.77.39m.36-7.27q.99 0 1.49-.5.49-.5.49-1.45 0-1.02-.5-1.53-.51-.52-1.5-.52-.94 0-1.45.53t-.51 1.54q0 .93.51 1.43.52.5 1.47.5"></path><rect width="8.63" height="13.37" x="-4.32" y="-6.68" fill="none" rx="0" ry="0" transform="translate(277.4 490.99)"></rect><path d="M290.82 483.845q1.63 0 2.42.73t.79 2.33v6.18h-1.01l-.26-1.34h-.07q-.38.5-.8.83-.41.34-.96.51-.54.17-1.33.17-.83 0-1.47-.29-.65-.29-1.01-.88-.37-.59-.37-1.49 0-1.37 1.08-2.1 1.07-.73 3.28-.79l1.57-.07v-.56q0-1.17-.51-1.65-.5-.47-1.42-.47-.72 0-1.36.21-.65.2-1.23.49l-.43-1.05q.62-.32 1.41-.54.8-.22 1.68-.22m1.84 4.76-1.38.06q-1.7.07-2.4.56-.7.49-.7 1.38 0 .78.48 1.16.47.37 1.25.37 1.21 0 1.98-.67.77-.68.77-2.02Z"></path><rect width="7.28" height="9.41" x="-3.64" y="-4.71" fill="none" rx="0" ry="0" transform="translate(290.89 489.05)"></rect><path d="M301.17 483.825q1.62 0 2.45.79.83.8.83 2.55v5.92h-1.36v-5.83q0-1.14-.52-1.7-.52-.57-1.59-.57-1.51 0-2.12.86-.62.85-.62 2.48v4.76h-1.38v-9.09h1.12l.2 1.31h.08q.29-.48.74-.81.45-.33 1-.5.56-.17 1.17-.17"></path><rect width="7.59" height="9.26" x="-3.79" y="-4.63" fill="none" rx="0" ry="0" transform="translate(301.15 488.95)"></rect><path d="M310.53 493.255q-1.73 0-2.74-1.18-1.01-1.18-1.01-3.5 0-2.35 1.03-3.55 1.03-1.2 2.74-1.2.72 0 1.26.19t.93.51q.39.32.66.73h.1q-.03-.26-.07-.71-.03-.45-.03-.73v-3.64h1.38v12.91h-1.11l-.21-1.29h-.06q-.26.41-.65.74-.4.33-.94.52-.54.2-1.28.2m.21-1.15q1.46 0 2.07-.83.61-.83.61-2.46v-.25q0-1.73-.58-2.66-.58-.93-2.1-.93-1.27 0-1.9.97-.63.98-.63 2.66 0 1.68.63 2.59.63.91 1.9.91"></path><rect width="8" height="13.08" x="-4" y="-6.54" fill="none" rx="0" ry="0" transform="translate(311.28 487.21)"></rect><path d="M325.34 493.255q-1.72 0-2.73-1.18t-1.01-3.5q0-2.35 1.03-3.55 1.03-1.2 2.74-1.2.72 0 1.26.19t.93.51q.39.32.66.73h.1q-.04-.26-.07-.71-.03-.45-.03-.73v-3.64h1.37v12.91h-1.11l-.21-1.29h-.05q-.26.41-.65.74-.4.33-.94.52-.55.2-1.29.2m.22-1.15q1.46 0 2.07-.83.6-.83.6-2.46v-.25q0-1.73-.57-2.66-.58-.93-2.1-.93-1.27 0-1.9.97-.63.98-.63 2.66 0 1.68.63 2.59.62.91 1.9.91"></path><rect width="7.99" height="13.08" x="-4" y="-6.54" fill="none" rx="0" ry="0" transform="translate(326.1 487.21)"></rect><path d="M333.89 483.995v9.09h-1.38v-9.09Zm-.68-3.41q.34 0 .59.22.24.22.24.69 0 .45-.24.68-.25.22-.59.22-.35 0-.59-.22-.24-.23-.24-.68 0-.47.24-.69.24-.22.59-.22"></path><rect width="1.66" height="12.5" x="-.83" y="-6.25" fill="none" rx="0" ry="0" transform="translate(333.71 487.33)"></rect><path d="M342.68 490.595q0 .88-.43 1.47-.44.59-1.25.89-.81.3-1.93.3-.95 0-1.65-.15-.69-.15-1.22-.42v-1.27q.56.27 1.33.5.77.22 1.58.22 1.18 0 1.71-.38t.53-1.04q0-.37-.21-.66-.21-.29-.71-.56-.5-.27-1.38-.59-.87-.33-1.51-.66-.63-.33-.98-.8-.34-.47-.34-1.23 0-1.15.93-1.77.94-.62 2.46-.62.82 0 1.54.16.71.16 1.34.44l-.47 1.1q-.56-.24-1.2-.4-.64-.17-1.31-.17-.95 0-1.46.31-.51.32-.51.87 0 .42.24.7.23.27.75.51.53.24 1.38.56.86.32 1.48.66.62.33.96.81.33.48.33 1.22"></path><rect width="6.48" height="9.43" x="-3.24" y="-4.71" fill="none" rx="0" ry="0" transform="translate(339.94 489.04)"></rect><path d="M348.55 493.255q-1.23 0-2.17-.51-.94-.5-1.46-1.54-.53-1.04-.53-2.62 0-1.65.56-2.7.55-1.05 1.52-1.55.97-.51 2.21-.51.68 0 1.31.14.64.13 1.05.34l-.42 1.16q-.41-.17-.96-.3-.54-.14-1.02-.14-.94 0-1.57.41-.62.41-.94 1.2-.31.78-.31 1.94 0 1.1.31 1.88.3.78.9 1.19.6.41 1.51.41.72 0 1.3-.15.58-.15 1.05-.36v1.23q-.45.23-1.01.36-.56.12-1.33.12"></path><rect width="6.65" height="9.43" x="-3.33" y="-4.71" fill="none" rx="0" ry="0" transform="translate(348.21 489.04)"></rect><path d="M360.56 483.995v9.09h-1.13l-.2-1.27h-.08q-.28.47-.73.79-.44.33-1.01.49-.56.16-1.19.16-1.08 0-1.81-.35t-1.1-1.08q-.37-.73-.37-1.87v-5.96h1.4v5.86q0 1.13.51 1.69.52.56 1.57.56 1.02 0 1.62-.38.6-.38.86-1.12.27-.75.27-1.82v-4.79Z"></path><rect width="7.62" height="9.26" x="-3.81" y="-4.63" fill="none" rx="0" ry="0" transform="translate(357.25 489.13)"></rect><path d="M369.36 490.595q0 .88-.44 1.47t-1.25.89q-.8.3-1.93.3-.95 0-1.65-.15-.69-.15-1.22-.42v-1.27q.56.27 1.33.5.77.22 1.58.22 1.18 0 1.71-.38t.53-1.04q0-.37-.21-.66-.21-.29-.71-.56-.5-.27-1.38-.59-.87-.33-1.51-.66-.63-.33-.98-.8-.34-.47-.34-1.23 0-1.15.93-1.77.94-.62 2.46-.62.82 0 1.54.16.71.16 1.34.44l-.47 1.1q-.56-.24-1.2-.4-.64-.17-1.31-.17-.95 0-1.46.31-.51.32-.51.87 0 .42.24.7.23.27.76.51.52.24 1.37.56.86.32 1.48.66.62.33.96.81.34.48.34 1.22"></path><rect width="6.49" height="9.43" x="-3.25" y="-4.71" fill="none" rx="0" ry="0" transform="translate(366.62 489.04)"></rect><path d="M377.46 490.595q0 .88-.44 1.47-.43.59-1.24.89-.81.3-1.93.3-.96 0-1.66-.15-.69-.15-1.22-.42v-1.27q.56.27 1.33.5.77.22 1.58.22 1.18 0 1.71-.38t.53-1.04q0-.37-.21-.66-.21-.29-.71-.56-.5-.27-1.38-.59-.87-.33-1.51-.66-.63-.33-.97-.8-.35-.47-.35-1.23 0-1.15.93-1.77.94-.62 2.46-.62.82 0 1.54.16.72.16 1.34.44l-.47 1.1q-.56-.24-1.2-.4-.64-.17-1.3-.17-.96 0-1.47.31-.51.32-.51.87 0 .42.24.7.23.27.76.51.52.24 1.37.56.86.32 1.48.66.62.33.96.81.34.48.34 1.22"></path><rect width="6.49" height="9.43" x="-3.25" y="-4.71" fill="none" rx="0" ry="0" transform="translate(374.71 489.04)"></rect><path d="M381.05 483.995v9.09h-1.38v-9.09Zm-.67-3.41q.34 0 .58.22.25.22.25.69 0 .45-.25.68-.24.22-.58.22-.36 0-.59-.22-.24-.23-.24-.68 0-.47.24-.69.23-.22.59-.22"></path><rect width="1.66" height="12.5" x="-.83" y="-6.25" fill="none" rx="0" ry="0" transform="translate(380.88 487.33)"></rect><path d="M388.27 483.825q1.62 0 2.45.79.83.8.83 2.55v5.92h-1.36v-5.83q0-1.14-.52-1.7-.52-.57-1.59-.57-1.51 0-2.12.86-.62.85-.62 2.48v4.76h-1.38v-9.09h1.12l.2 1.31h.08q.29-.48.74-.81.45-.33 1-.5.56-.17 1.17-.17"></path><rect width="7.59" height="9.26" x="-3.79" y="-4.63" fill="none" rx="0" ry="0" transform="translate(388.25 488.95)"></rect><path d="M396.93 497.175q-1.79 0-2.76-.67-.97-.67-.97-1.87 0-.86.54-1.46.54-.61 1.51-.81-.36-.16-.61-.5-.26-.33-.26-.76 0-.5.28-.88.28-.37.85-.72-.71-.29-1.16-.99-.44-.69-.44-1.61 0-.98.41-1.67.4-.7 1.17-1.06.78-.37 1.87-.37.24 0 .49.02l.47.06q.22.04.39.09h3.12v.89l-1.68.21q.25.32.42.78.16.45.16 1.01 0 1.36-.92 2.16t-2.53.8q-.38 0-.78-.06-.41.22-.62.49-.21.28-.21.63 0 .27.16.43.16.16.47.23.31.07.74.07h1.6q1.49 0 2.28.62.79.62.79 1.82 0 1.51-1.23 2.31-1.23.81-3.55.81m.04-1.08q1.13 0 1.87-.23.75-.23 1.12-.66.37-.42.37-1.01 0-.55-.25-.83-.25-.28-.73-.37-.49-.1-1.18-.1h-1.58q-.61 0-1.07.19-.46.19-.7.57-.25.37-.25.93 0 .74.63 1.12.62.39 1.77.39m.36-7.27q.99 0 1.48-.5.5-.5.5-1.45 0-1.02-.5-1.53-.51-.52-1.5-.52-.94 0-1.45.53t-.51 1.54q0 .93.51 1.43.51.5 1.47.5"></path><rect width="8.63" height="13.37" x="-4.32" y="-6.68" fill="none" rx="0" ry="0" transform="translate(398.01 490.99)"></rect><path d="M409.41 483.995v9.09h-1.37v-9.09Zm-.67-3.41q.34 0 .59.22.24.22.24.69 0 .45-.24.68-.25.22-.59.22-.35 0-.59-.22-.24-.23-.24-.68 0-.47.24-.69.24-.22.59-.22"></path><rect width="1.66" height="12.5" x="-.83" y="-6.25" fill="none" rx="0" ry="0" transform="translate(409.24 487.33)"></rect><path d="M415.57 493.255q-1.73 0-2.74-1.18-1.01-1.18-1.01-3.5 0-2.35 1.03-3.55 1.03-1.2 2.74-1.2.72 0 1.26.19t.93.51q.39.32.66.73h.1q-.04-.26-.07-.71-.03-.45-.03-.73v-3.64h1.38v12.91h-1.12l-.2-1.29h-.06q-.26.41-.65.74-.4.33-.94.52-.55.2-1.28.2m.21-1.15q1.46 0 2.07-.83.6-.83.6-2.46v-.25q0-1.73-.57-2.66-.58-.93-2.1-.93-1.27 0-1.9.97-.63.98-.63 2.66 0 1.68.63 2.59.62.91 1.9.91"></path><rect width="8" height="13.08" x="-4" y="-6.54" fill="none" rx="0" ry="0" transform="translate(416.32 487.21)"></rect><path d="M426.23 483.825q1.16 0 1.99.51.83.52 1.27 1.44.44.93.44 2.17v.85h-6.28q.03 1.6.8 2.44.77.84 2.17.84.87 0 1.53-.16.66-.15 1.38-.46v1.21q-.69.31-1.37.45-.67.14-1.6.14-1.31 0-2.28-.54-.98-.53-1.52-1.57t-.54-2.54q0-1.47.5-2.54.49-1.08 1.39-1.66.9-.58 2.12-.58m-.01 1.13q-1.11 0-1.76.72-.66.72-.78 2.02h4.81q-.01-.82-.25-1.43-.25-.62-.75-.97-.49-.34-1.27-.34"></path><rect width="7.71" height="9.43" x="-3.85" y="-4.71" fill="none" rx="0" ry="0" transform="translate(426.57 489.04)"></rect><path d="M435.68 483.845q1.63 0 2.41.73.79.73.79 2.33v6.18h-1l-.27-1.34h-.06q-.39.5-.8.83-.42.34-.96.51-.54.17-1.33.17-.83 0-1.47-.29-.65-.29-1.02-.88-.37-.59-.37-1.49 0-1.37 1.08-2.1t3.29-.79l1.57-.07v-.56q0-1.17-.51-1.65-.5-.47-1.43-.47-.71 0-1.36.21-.64.2-1.23.49l-.42-1.05q.62-.32 1.41-.54.8-.22 1.68-.22m1.84 4.76-1.38.06q-1.71.07-2.4.56-.7.49-.7 1.38 0 .78.47 1.16.48.37 1.26.37 1.21 0 1.98-.67.77-.68.77-2.02Z"></path><rect width="7.28" height="9.41" x="-3.64" y="-4.71" fill="none" rx="0" ry="0" transform="translate(435.74 489.05)"></rect><path d="M447.61 490.595q0 .88-.44 1.47-.43.59-1.24.89-.81.3-1.93.3-.96 0-1.66-.15-.69-.15-1.22-.42v-1.27q.56.27 1.33.5.77.22 1.58.22 1.18 0 1.71-.38t.53-1.04q0-.37-.21-.66-.21-.29-.71-.56-.5-.27-1.38-.59-.87-.33-1.51-.66-.63-.33-.97-.8-.35-.47-.35-1.23 0-1.15.93-1.77.94-.62 2.46-.62.82 0 1.54.16.72.16 1.34.44l-.47 1.1q-.56-.24-1.2-.4-.64-.17-1.3-.17-.96 0-1.47.31-.51.32-.51.87 0 .42.24.7.23.27.76.51.52.24 1.37.56.86.32 1.48.66.62.33.96.81.34.48.34 1.22"></path><rect width="6.49" height="9.43" x="-3.25" y="-4.71" fill="none" rx="0" ry="0" transform="translate(444.87 489.04)"></rect><circle r="130.59" stroke="#3d3d3d" stroke-width="9" transform="translate(276.91 170.76)scale(1.2283)"></circle><path fill="#3d3d3d" d="M275.598 135.271c-13.948 0-25.296 12.035-25.296 26.83 0 2.071.231 4.158.689 6.202l.766 2.768a29.208 29.208 0 0 0 1.228 3.031c1.321 3.203 3.197 7.576 4.934 10.952 1.965 3.817 2.905 9.093 3.347 12.848.087.736.15 1.381.195 1.907h28.27c.273-3.168 1.13-10.061 3.546-14.75 1.737-3.379 3.61-7.754 4.878-10.83a28.196 28.196 0 0 0 1.29-3.194l.023-.061.769-2.792a28.49 28.49 0 0 0 .657-6.078c0-14.798-11.348-26.833-25.296-26.833m-7.886 12.698c-2.176 1.79-12.469 11.583-1.426 28.888a2.631 2.631 0 1 1-4.436 2.832c-13.432-21.05-.258-33.504 2.52-35.785a2.631 2.631 0 1 1 3.342 4.065"></path><path fill="#3d3d3d" d="M275.598 66.892c-56.637 0-102.548 45.911-102.548 102.548 0 32.319 14.966 61.128 38.328 79.925l-38.328 22.626h102.548c56.637 0 102.551-45.912 102.551-102.551 0-56.637-45.92-102.548-102.551-102.548m28.688 63.888 10.643-10.643a2.63 2.63 0 1 1 3.72 3.72L308.007 134.5a2.623 2.623 0 0 1-3.72 0 2.631 2.631 0 0 1 0-3.72m-31.32-27.636a2.631 2.631 0 0 1 5.263 0v15.053a2.631 2.631 0 1 1-5.262 0zm-40.417 16.474a2.629 2.629 0 0 1 3.72 0l10.644 10.643a2.63 2.63 0 1 1-3.72 3.72l-10.644-10.642a2.631 2.631 0 0 1 0-3.72m-17.466 42.143a2.631 2.631 0 0 1 2.631-2.631h15.053a2.631 2.631 0 0 1 0 5.262h-15.053a2.631 2.631 0 0 1-2.631-2.63m31.83 34.328-10.644 10.644a2.623 2.623 0 0 1-3.72 0 2.629 2.629 0 0 1 0-3.72l10.643-10.644a2.63 2.63 0 1 1 3.72 3.72m41.021 27.83h-24.665a2.631 2.631 0 1 1 0-5.262h24.665a2.631 2.631 0 1 1 0 5.263m2.073-6.255h-28.811a2.631 2.631 0 1 1 0-5.262h28.811a2.631 2.631 0 1 1 0 5.262m0-6.257h-28.811a2.631 2.631 0 1 1 0-5.262h28.811a2.631 2.631 0 1 1 0 5.262m7.952-23.944c-2.46 4.776-3.018 13.064-3.073 13.993l-.056 1.11a2.631 2.631 0 0 1-2.628 2.503h-33.209a2.631 2.631 0 0 1-2.628-2.5l-.053-1.11a51.258 51.258 0 0 0-.27-2.945c-.556-4.694-1.55-8.62-2.8-11.053-1.821-3.542-3.76-8.06-5.068-11.23a31.81 31.81 0 0 1-1.416-3.537 3.394 3.394 0 0 1-.06-.21l-.005.003-.803-2.913a33.777 33.777 0 0 1-.847-7.475c0-17.695 13.708-32.093 30.559-32.093 16.852 0 30.561 14.398 30.561 32.093 0 2.45-.274 4.92-.818 7.349l-.832 3.039v-.003a2.952 2.952 0 0 1-.118.345 30.633 30.633 0 0 1-1.424 3.525c-1.252 3.042-3.191 7.565-5.012 11.11m20.692 19.783a2.623 2.623 0 0 1-3.72 0l-10.647-10.645a2.63 2.63 0 1 1 3.72-3.721l10.647 10.646a2.629 2.629 0 0 1 0 3.72m14.834-42.857h-15.053a2.631 2.631 0 1 1 0-5.262h15.053a2.631 2.631 0 1 1 0 5.262"></path></svg></svg>